#!OML:ASF X:\für Bonn\!DataBase\2005_08_10_Bjorn_Final\c3d\bjorn.ASF
:FULLY-SPECIFIED
:DEGREES
247
root 2.28354 18.4425 -0.101893 533.064 82.9282 -189.073
lowerback -0.068464 1.726 -3.7417
upperback 11.7577 3.84135 -4.61665
thorax 12.9083 2.08962 -2.46837
lowerneck 5.9605 -4.13421 1.0158
upperneck 12.1475 -5.70163 8.86055
head 3.18145 -2.33413 2.71277
rclavicle 7.95139e-016 2.70347e-014
rhumerus -26.5907 -19.3084 -79.2085
rradius 29.6393
rwrist 8.85174
rhand -8.5018 16.9489
rfingers 7.12502
rthumb 17.426 -12.29
lclavicle 7.95139e-016 2.70347e-014
lhumerus -4.42597 6.40202 66.031
lradius 49.814
lwrist -11.4603
lhand -33.4336 -16.9363
lfingers 7.12502
lthumb -6.63284 12.9398
rfemur -35.4308 -11.3819 11.7352
rtibia 38.6962
rfoot -1.03188 6.6016
rtoes -14.402
lfemur 6.33777 -5.40907 -14.176
ltibia 24.8052
lfoot -21.5367 -9.88574
ltoes -13.6677
248
root 2.37005 18.4495 -0.0475218 532.09 82.7368 -190.342
lowerback -0.054173 1.62849 -3.63969
upperback 11.7861 3.69578 -4.5648
thorax 12.9292 2.02584 -2.48487
lowerneck 5.68656 -4.06116 1.04201
upperneck 12.11 -5.61139 8.69161
head 3.20418 -2.29245 2.64551
rclavicle -2.06736e-014 5.40694e-014
rhumerus -26.4807 -19.168 -79.258
rradius 29.7472
rwrist 8.82649
rhand -8.44963 16.8829
rfingers 7.12502
rthumb 17.4762 -12.3515
lclavicle -2.06736e-014 5.40694e-014
lhumerus -4.60674 6.22761 65.9804
lradius 49.8317
lwrist -11.3031
lhand -33.353 -16.9608
lfingers 7.12502
lthumb -6.55503 12.9178
rfemur -35.7013 -11.3198 11.6786
rtibia 39.1944
rfoot -1.46593 6.55637
rtoes -14.2024
lfemur 6.48999 -5.3289 -14.0586
ltibia 24.2679
lfoot -21.1977 -10.2405
ltoes -14.0395
249
root 2.45704 18.4571 0.00849485 531.344 82.5056 -191.373
lowerback -0.0303021 1.52174 -3.55427
upperback 11.8026 3.53233 -4.48759
thorax 12.9258 1.9491 -2.46662
lowerneck 5.40523 -4.00056 1.10296
upperneck 12.1223 -5.53519 8.48012
head 3.24364 -2.25483 2.55796
rclavicle -1.03368e-014 -2.14687e-014
rhumerus -26.3824 -18.994 -79.2811
rradius 29.8253
rwrist 8.79479
rhand -8.50708 16.8242
rfingers 7.12502
rthumb 17.4209 -12.4152
lclavicle -1.03368e-014 -2.14687e-014
lhumerus -4.82099 6.03301 65.9524
lradius 49.843
lwrist -11.1941
lhand -33.3293 -16.9786
lfingers 7.12502
lthumb -6.53215 12.9007
rfemur -35.9385 -11.2725 11.6475
rtibia 39.6784
rfoot -1.93822 6.50533
rtoes -14.1536
lfemur 6.61488 -5.23811 -13.9011
ltibia 23.7736
lfoot -20.8827 -10.5489
ltoes -14.8489
250
root 2.54252 18.4516 0.0641234 530.649 82.288 -192.354
lowerback -0.00529093 1.43022 -3.42007
upperback 11.8074 3.38892 -4.44093
thorax 12.9135 1.88976 -2.5067
lowerneck 5.11022 -3.95032 1.26828
upperneck 12.1239 -5.46783 8.24925
head 3.27828 -2.21768 2.44511
rclavicle 7.15625e-015 5.56597e-015
rhumerus -26.3396 -18.9101 -79.3078
rradius 29.9439
rwrist 8.79449
rhand -8.49771 16.7373
rfingers 7.12502
rthumb 17.4299 -12.5013
lclavicle 7.15625e-015 5.56597e-015
lhumerus -5.06293 5.72945 65.8528
lradius 49.9191
lwrist -11.0554
lhand -33.3002 -16.9905
lfingers 7.12502
lthumb -6.50401 12.8896
rfemur -36.2185 -11.262 11.6273
rtibia 40.1752
rfoot -2.37032 6.49287
rtoes -13.9962
lfemur 6.70766 -5.12905 -13.7347
ltibia 23.3418
lfoot -20.5816 -10.8671
ltoes -15.6168
251
root 2.62971 18.4603 0.120761 530.118 82.0768 -193.17
lowerback 0.0113331 1.32729 -3.31519
upperback 11.8028 3.22465 -4.35503
thorax 12.8892 1.81294 -2.48952
lowerneck 4.78759 -3.8844 1.30271
upperneck 12.1892 -5.39075 8.04805
head 3.34607 -2.1778 2.36673
rclavicle -1.39149e-014 -5.56597e-015
rhumerus -26.2837 -18.7285 -79.3027
rradius 30.0379
rwrist 8.74074
rhand -8.5478 16.6521
rfingers 7.12502
rthumb 17.3817 -12.5907
lclavicle -1.39149e-014 -5.56597e-015
lhumerus -5.36504 5.49406 65.8044
lradius 50.0486
lwrist -10.9946
lhand -33.2516 -16.9616
lfingers 7.12502
lthumb -6.45712 12.9199
rfemur -36.4363 -11.1752 11.6168
rtibia 40.6156
rfoot -2.87333 6.40816
rtoes -13.8246
lfemur 6.77202 -5.0376 -13.5561
ltibia 22.9524
lfoot -20.2408 -11.2181
ltoes -16.2558
